<svg width="20" height="20" viewBox="0 0 20 20" fill="none" xmlns="http://www.w3.org/2000/svg">
<path d="M16.2475 6.65749L9.99997 12.7475L3.75247 6.65749C3.64085 6.54846 3.49101 6.48743 3.33497 6.48743C3.17894 6.48743 3.0291 6.54846 2.91747 6.65749C2.86343 6.71045 2.82049 6.77365 2.79118 6.84341C2.76186 6.91317 2.74677 6.98808 2.74677 7.06374C2.74677 7.13941 2.76186 7.21431 2.79118 7.28407C2.82049 7.35383 2.86343 7.41704 2.91747 7.46999L9.56372 13.95C9.68044 14.0638 9.83698 14.1274 9.99997 14.1274C10.163 14.1274 10.3195 14.0638 10.4362 13.95L17.0825 7.47124C17.1369 7.41825 17.1802 7.35488 17.2097 7.2849C17.2392 7.21491 17.2545 7.13971 17.2545 7.06374C17.2545 6.98777 17.2392 6.91258 17.2097 6.84259C17.1802 6.7726 17.1369 6.70924 17.0825 6.65624C16.9709 6.54721 16.821 6.48618 16.665 6.48618C16.5089 6.48618 16.3591 6.54721 16.2475 6.65624V6.65749Z" fill="white"/>
</svg>
